# File created by Blade
# Date/Time:  Wed Apr 08 17:16:55 2015
#---------------------------------------------------------
:version 1.10
:name HOM
:units
  mass 1.0
  length 1.000000
  angle deg
:documentation
     Acclaim Skeleton File
:root
   axis xyz
   order TX TY TZ RX RY RZ
   position 0.000000 0.000000 0.000000
   orientation 0 0 0
:bonedata
   begin
      id 1
      name Spine_dum
      direction 0.000000 1.000000 0.000000
      length 5.893853
      axis 0.0 0.0 0.0 xyz
   end
   begin
      id 2
      name LeftUpLeg_dum
      direction 1.000000 0.000000 0.000000
      length 3.697939
      axis 0.0 0.0 0.0 xyz
   end
   begin
      id 3
      name RightUpLeg_dum
      direction -1.000000 0.000000 0.000000
      length 3.697939
      axis 0.0 0.0 0.0 xyz
   end
   begin
      id 4
      name Spine
      direction 0.000000 1.000000 0.000000
      length 0.000000
      axis 0.0 0.0 0.0 xyz
      dof rx ry rz
   end
   begin
      id 5
      name Spine_dum1
      direction 0.000000 1.000000 0.000000
      length 16.447146
      axis 0.0 0.0 0.0 xyz
   end
   begin
      id 6
      name Spine_dum2
      direction 0.000000 1.000000 0.000000
      length 10.900383
      axis 0.0 0.0 0.0 xyz
   end
   begin
      id 7
      name Spine_dum3
      direction 0.000000 1.000000 0.000000
      length 10.900383
      axis 0.0 0.0 0.0 xyz
   end
   begin
      id 8
      name Head
      direction 0.000000 1.000000 0.000000
      length 4.527550
      axis 0.0 0.0 0.0 xyz
      dof rx ry rz
   end
   begin
      id 9
      name LeftShoulder
      direction 1.000000 0.000000 0.000000
      length 8.219464
      axis 0.0 0.0 -90.0 xyz
      dof rx ry rz
   end
   begin
      id 10
      name LeftArm
      direction 1.000000 0.000000 0.000000
      length 11.094937
      axis 0.0 0.0 -90.0 xyz
      dof rx ry rz
   end
   begin
      id 11
      name LeftForeArm
      direction 1.000000 0.000000 0.000000
      length 9.103875
      axis 0.0 0.0 -90.0 xyz
      dof ry rz rx
   end
   begin
      id 12
      name LeftHand
      direction 0.000000 0.000000 0.000000
      length 0.000000
      axis 0.0 0.0 -90.0 xyz
      dof rx ry rz
   end
   begin
      id 13
      name LeftHand_dum1
      direction 0.000000 0.000000 0.000000
      length 0.000000
      axis 0.0 0.0 -90.0 xyz
   end
   begin
      id 14
      name LeftHand_dum2
      direction 1.000000 0.000000 0.000000
      length 3.937000
      axis 0.0 0.0 -90.0 xyz
   end
   begin
      id 15
      name LeftHandThumb1
      direction 0.000000 0.000000 1.000000
      length 3.937000
      axis 0.0 0.0 -90.0 xyz
      dof rx rz ry
   end
   begin
      id 16
      name RightShoulder
      direction -1.000000 0.000000 0.000000
      length 8.219464
      axis 0.0 0.0 90.0 xyz
      dof rx ry rz
   end
   begin
      id 17
      name RightArm
      direction -1.000000 0.000000 0.000000
      length 11.094937
      axis 0.0 0.0 90.0 xyz
      dof rx ry rz
   end
   begin
      id 18
      name RightForeArm
      direction -1.000000 0.000000 0.000000
      length 9.103875
      axis 0.0 0.0 90.0 xyz
      dof ry rz rx
   end
   begin
      id 19
      name RightHand
      direction 0.000000 0.000000 0.000000
      length 0.000000
      axis 0.0 0.0 90.0 xyz
      dof rx ry rz
   end
   begin
      id 20
      name RightHand_dum1
      direction 0.000000 0.000000 0.000000
      length 0.000000
      axis 0.0 0.0 90.0 xyz
   end
   begin
      id 21
      name RightHand_dum2
      direction -1.000000 0.000000 0.000000
      length 3.937000
      axis 0.0 0.0 90.0 xyz
   end
   begin
      id 22
      name RightHandThumb1
      direction 0.000000 0.000000 1.000000
      length 3.937000
      axis 0.0 0.0 90.0 xyz
      dof rx rz ry
   end
   begin
      id 23
      name LeftUpLeg
      direction 0.000000 -1.000000 0.000000
      length 16.181467
      axis 0.0 0.0 0.0 xyz
      dof rx ry rz
   end
   begin
      id 24
      name LeftLeg
      direction 0.000000 -1.000000 0.000000
      length 16.501392
      axis 0.0 0.0 0.0 xyz
      dof rx ry rz
   end
   begin
      id 25
      name LeftFoot
      direction 0.000000 -0.258819 0.965926
      length 6.408245
      axis 15.0 0.0 0.0 xyz
      dof rx ry rz
   end
   begin
      id 26
      name LeftToeBase
      direction 0.000000 0.000000 1.000000
      length 2.952750
      axis 0.0 0.0 0.0 xyz
      dof rx ry rz
   end
   begin
      id 27
      name RightUpLeg
      direction 0.000000 -1.000000 0.000000
      length 16.181467
      axis 0.0 0.0 0.0 xyz
      dof rx ry rz
   end
   begin
      id 28
      name RightLeg
      direction 0.000000 -1.000000 0.000000
      length 16.501392
      axis 0.0 0.0 0.0 xyz
      dof rx ry rz
   end
   begin
      id 29
      name RightFoot
      direction 0.000000 -0.258819 0.965926
      length 6.408245
      axis 15.0 0.0 0.0 xyz
      dof rx ry rz
   end
   begin
      id 30
      name RightToeBase
      direction 0.000000 0.000000 1.000000
      length 2.952750
      axis 0.0 0.0 0.0 xyz
      dof rx ry rz
   end
:hierarchy
   begin
      root Spine_dum LeftUpLeg_dum RightUpLeg_dum
      Spine_dum Spine
      LeftUpLeg_dum LeftUpLeg
      RightUpLeg_dum RightUpLeg
      Spine Spine_dum1 Spine_dum2 Spine_dum3
      Spine_dum1 Head
      Spine_dum2 LeftShoulder
      Spine_dum3 RightShoulder
      LeftShoulder LeftArm
      LeftArm LeftForeArm
      LeftForeArm LeftHand
      LeftHand LeftHand_dum1 LeftHand_dum2
      LeftHand_dum1 LeftHandThumb1
      RightShoulder RightArm
      RightArm RightForeArm
      RightForeArm RightHand
      RightHand RightHand_dum1 RightHand_dum2
      RightHand_dum1 RightHandThumb1
      LeftUpLeg LeftLeg
      LeftLeg LeftFoot
      LeftFoot LeftToeBase
      RightUpLeg RightLeg
      RightLeg RightFoot
      RightFoot RightToeBase
   end

# File created by Blade
# Date/Time:  Wed Apr 08 17:17:01 2015
# Frame Rate: 120.000 fps
#------------------------------------------------------
:FULLY-SPECIFIED
:DEGREES
726
root 4.310381 35.940311 4.774721 3.883611 -51.072874 -12.760605
Spine 13.513039 2.182534 9.492817
Head 13.745193 12.620099 6.593817
LeftShoulder -6.207735 16.257860 16.114648
LeftArm 19.022243 25.893946 -74.205192
LeftForeArm 26.264813 -0.000000 25.236968
LeftHand -8.770979 -0.000000 -18.668707
LeftHandThumb1 -26.253704 0.000000 33.147579
RightShoulder -26.945286 -48.335445 20.856423
RightArm 59.007348 -16.304897 51.337451
RightForeArm 33.360277 -0.000000 10.681549
RightHand -3.649171 0.000000 13.895910
RightHandThumb1 -24.326973 -0.000000 -32.862282
LeftUpLeg 3.374778 21.084167 2.130076
LeftLeg 18.836240 -0.000000 -0.000000
LeftFoot -21.201243 10.554485 -3.537499
LeftToeBase 4.677755 -0.000000 -0.000000
RightUpLeg -47.752325 -2.581948 -10.155471
RightLeg 153.852311 -0.000000 -0.000000
RightFoot 36.047657 8.059441 13.080236
RightToeBase -5.062516 -0.000000 0.000000
727
root 4.311647 35.940981 4.789594 4.110040 -51.488858 -12.960549
Spine 13.519622 2.151663 9.439732
Head 13.571141 12.631576 6.657531
LeftShoulder -6.191761 16.203642 16.176119
LeftArm 18.992804 25.829356 -74.302967
LeftForeArm 26.316500 0.000000 25.234040
LeftHand -8.749517 -0.000000 -18.647570
LeftHandThumb1 -26.253704 0.000000 33.147579
RightShoulder -27.107139 -48.363239 21.022908
RightArm 59.043871 -16.344251 51.144516
RightForeArm 33.632228 -0.000000 10.871046
RightHand -3.497022 0.000000 13.469748
RightHandThumb1 -24.326973 -0.000000 -32.862282
LeftUpLeg 3.366611 21.381950 2.178699
LeftLeg 18.853645 -0.000000 -0.000000
LeftFoot -21.197655 10.667958 -3.451044
LeftToeBase 4.594993 -0.000000 -0.000000
RightUpLeg -47.787815 -2.802780 -10.330687
RightLeg 153.824666 -0.000000 -0.000000
RightFoot 35.951729 8.023007 12.998395
RightToeBase -5.020151 -0.000000 0.000000
728
root 4.313714 35.940673 4.805457 4.330688 -51.942645 -13.182080
Spine 13.559266 2.148119 9.417651
Head 13.392382 12.678128 6.676339
LeftShoulder -6.210456 16.180334 16.206179
LeftArm 19.051326 25.920378 -74.293588
LeftForeArm 26.205317 -0.000000 25.241617
LeftHand -8.784481 0.000000 -18.597510
LeftHandThumb1 -26.253704 0.000000 33.147579
RightShoulder -27.056264 -48.279039 20.967645
RightArm 58.840660 -16.170437 51.535548
RightForeArm 33.416760 -0.000000 10.881452
RightHand -3.507186 0.000000 13.584264
RightHandThumb1 -24.326973 -0.000000 -32.862282
LeftUpLeg 3.374941 21.722342 2.247642
LeftLeg 18.901125 -0.000000 -0.000000
LeftFoot -21.204377 10.768969 -3.341831
LeftToeBase 4.559457 -0.000000 -0.000000
RightUpLeg -47.820428 -2.963651 -10.501564
RightLeg 153.796326 -0.000000 -0.000000
RightFoot 35.892008 7.940086 13.015106
RightToeBase -4.925325 -0.000000 0.000000
729
root 4.314843 35.940944 4.825647 4.542467 -52.372987 -13.417178
Spine 13.607371 2.120399 9.409485
Head 13.226862 12.701933 6.695002
LeftShoulder -6.213928 16.104266 16.260464
LeftArm 19.019945 25.992476 -74.365021
LeftForeArm 26.154528 -0.000000 25.272490
LeftHand -8.800116 0.000000 -18.542307
LeftHandThumb1 -26.253704 0.000000 33.147579
RightShoulder -27.162920 -48.263487 21.069583
RightArm 58.864831 -16.150477 51.422434
RightForeArm 33.588329 -0.000000 10.925056
RightHand -3.517910 0.000000 13.559702
RightHandThumb1 -24.326973 -0.000000 -32.862282
LeftUpLeg 3.377545 22.022842 2.322531
LeftLeg 19.006233 -0.000000 -0.000000
LeftFoot -21.204842 10.903241 -3.240527
LeftToeBase 4.447843 -0.000000 -0.000000
RightUpLeg -47.811555 -3.140467 -10.700556
RightLeg 153.762434 -0.000000 -0.000000
RightFoot 35.842336 7.904459 12.960840
RightToeBase -4.878771 -0.000000 0.000000
